<svg xmlns="http://www.w3.org/2000/svg" xmlns:xlink="http://www.w3.org/1999/xlink" width="300" height="300" x="0" y="0" fill="#000" enable-background="new 0 0 48 48" version="1.1" viewBox="0 0 48 48" xml:space="preserve"><path d="M42.45,11.19H40.8v3h1.66c0.84,0,1.53,0.69,1.53,1.53v18.59c0,0.95-0.55,1.53-0.84,1.53H36.3v5.5l-4.62-4.62l-0.88-0.88 H16.66l-2.8,2.8c0.41,0.12,0.83,0.2,1.27,0.2h14.43l6.54,6.54c0.69,0.69,1.33,1.02,1.85,1.02c0.82,0,1.36-0.82,1.36-2.35v-5.21h3.84 c2.12,0,3.84-2.03,3.84-4.53V15.72C46.99,13.22,44.96,11.19,42.45,11.19z M32.87,29.26c2.5,0,4.53-2.03,4.53-4.53V6.14 c0-2.51-2.03-4.53-4.53-4.53H5.55c-2.5,0-4.53,2.03-4.53,4.53v18.59c0,2.51,1.72,4.53,3.84,4.53H8.7v5.21c0,2.5,1.43,3.1,3.21,1.33 l6.54-6.54H32.87z M26.1,14.04c1.18,0,2.13,0.95,2.13,2.13c0,1.17-0.95,2.13-2.13,2.13c-1.17,0-2.13-0.95-2.13-2.13 C23.97,15,24.92,14.04,26.1,14.04z M12.32,18.3c-1.18,0-2.13-0.95-2.13-2.13c0-1.18,0.96-2.13,2.13-2.13c1.17,0,2.13,0.95,2.13,2.13 C14.45,17.35,13.49,18.3,12.32,18.3z M17.08,16.18c0-1.18,0.96-2.13,2.13-2.13c1.18,0,2.13,0.95,2.13,2.13 c0,1.17-0.96,2.13-2.13,2.13C18.03,18.3,17.08,17.35,17.08,16.18z"/></svg>