<svg xmlns="http://www.w3.org/2000/svg" width="300" height="300" x="0" y="0" fill="#260d70" viewBox="0 0 26.458 26.458"><path d="m13.109035 272.12915c-4.0828971 0-7.408046 3.33335-7.408046 7.42235v.003c.0048 2.24194 1.0501844 4.32694 2.7780302 5.72745v1.63754c-.3979763.32332-.6614419.78777-.6614419 1.34968 0 .41077.1414956.76868.372577 1.05827-.2310814.28962-.372577.64753-.372577 1.05826 0 1.03087.8858294 1.73282 1.8649226 1.837.1295368 1.77466 1.6205331 3.18978 3.4265351 3.18978 1.805975 0 3.296999-1.41512 3.426508-3.18978.979095-.10418 1.864924-.80613 1.864924-1.837 0-.41073-.141496-.76864-.372577-1.05826.231081-.28959.372577-.6475.372577-1.05827 0-.56191-.263466-1.02636-.661416-1.34968v-1.63495c1.72864-1.40114 2.774326-3.48704 2.778004-5.73004v-.003c0-4.089-3.325149-7.42235-7.40802-7.42235zm-9.2440243 1.3032c-.8333646-.0312-1.144957 1.07926-.4169998 1.48611l1.8302894 1.05673c.9245644.56037 1.7412335-.85392.7937046-1.37452l-1.8302903-1.05671c-.1142443-.0682-.2437541-.10656-.3767039-.11161zm18.7841373 0c-.151893-.005-.302014.0338-.43253.11161l-1.83238 1.05775c-.92086.52801-.124113 1.90831.793704 1.37503l1.83238-1.05828c.701658-.39243.442347-1.45946-.361174-1.48611zm-9.540113.2842c3.22289 0 5.820295 2.60169 5.820586 5.83442-.0032 1.88535-.913664 3.65075-2.445246 4.7436-.208725.14892-.332679.3895-.332758.64591v1.47528h-.800955v-3.57269l1.13837-1.36209c.446843-.52003.06858-1.32381-.616967-1.31095-.233887.004-.453961.11145-.601516.29298l-1.322858 1.58274c-.119219.14281-.184516.32293-.184463.50897v3.86104h-1.315635v-3.86104c.000053-.18604-.06525-.36619-.184489-.50897l-1.322858-1.58274c-.152687-.18814-.382949-.29624-.625249-.29351-.6748821.007-1.0334364.79991-.5932071 1.31148l1.1383681 1.36209v3.57269h-.793704v-1.47785c-.00008-.25641-.1240335-.49699-.3327844-.64591-1.5306307-1.09218-2.4407745-2.85631-2.4452464-4.7405 0-3.23226 2.5980657-5.8334 5.8206118-5.8334zm-10.7162363 5.1389c-1.0737319-.0156-1.0737319 1.60295 0 1.58739h2.1057406c1.0737328.0156 1.0737328-1.60295 0-1.58739zm19.5675233 0c-1.073732-.0156-1.073732 1.60295 0 1.58739h2.105212c1.073733.0156 1.073733-1.60295 0-1.58739zm-16.2479563 4.3545c-.1517083-.005-.3016177.0339-.4319745.11162l-1.8323803 1.05827c-.9476349.52056-.1308598 1.93499.7937037 1.3745l1.8323803-1.05773c.7032718-.3922.4431132-1.46142-.3617292-1.48666zm15.0909613.003c-.833363-.0312-1.144982 1.07927-.416999 1.48612l1.83029 1.05671c.924564.56049 1.741339-.85395.793704-1.3745l-1.83029-1.05672c-.114218-.0682-.243755-.10656-.376705-.11161zm-10.8691613 4.79127h6.3497393c.39205 0 .529127.21076.529127.26456s-.137077.26458-.529127.26458h-6.3497393c-.3920764 0-.5291541-.21076-.5291541-.26458 0-.0538.1370777-.26456.5291541-.26456zm0 2.11654h6.3497393c.39205 0 .529127.21075.529127.26456 0 .0538-.137077.26457-.529127.26457h-6.3497393c-.3920764 0-.5291541-.21076-.5291541-.26457 0-.0538.1370777-.26456.5291541-.26456z" transform="translate(0 -270.54165)"/></svg>