<svg xmlns="http://www.w3.org/2000/svg" xmlns:xlink="http://www.w3.org/1999/xlink" xmlns:xodm="http://www.corel.com/coreldraw/odm/2003" width="300" height="300" x="0" y="0" fill="#0059B3" style="shape-rendering:geometricPrecision;text-rendering:geometricPrecision;image-rendering:optimizeQuality" fill-rule="evenodd" clip-rule="evenodd" version="1.1" viewBox="0 0 320 319.99" xml:space="preserve"><defs><style type="text/css">.fil0{fill:#0059b3;fill-rule:nonzero}</style></defs><g><path d="M160 283.33c34.06,0 64.9,-13.81 87.21,-36.12 22.31,-22.31 36.12,-53.16 36.12,-87.21 0,-34.06 -13.81,-64.89 -36.12,-87.21 -22.31,-22.31 -53.16,-36.13 -87.21,-36.13 -34.06,0 -64.9,13.81 -87.21,36.13 -22.31,22.31 -36.13,53.15 -36.13,87.21 0,34.06 13.81,64.9 36.13,87.21 22.31,22.31 53.15,36.12 87.21,36.12zm101.35 -21.98c-25.94,25.93 -61.78,41.98 -101.35,41.98 -39.58,0 -75.42,-16.05 -101.35,-41.98 -25.94,-25.94 -41.98,-61.78 -41.98,-101.35 0,-39.58 16.05,-75.42 41.98,-101.35 25.93,-25.94 61.77,-41.98 101.35,-41.98 39.58,0 75.42,16.05 101.35,41.98 25.93,25.93 41.98,61.77 41.98,101.35 0,39.58 -16.05,75.42 -41.98,101.35z" class="fil0"/><path d="M26.66 169.86c-5.5,0 -9.96,-4.46 -9.96,-9.96 0,-5.5 4.46,-9.96 9.96,-9.96l266.67 -1.04c5.5,0 9.96,4.46 9.96,9.96 0,5.5 -4.46,9.96 -9.96,9.96l-266.67 1.04z" class="fil0"/><path d="M149.52 26.66c0,-5.5 4.46,-9.96 9.96,-9.96 5.5,0 9.96,4.46 9.96,9.96l1.04 266.67c0,5.5 -4.46,9.96 -9.96,9.96 -5.5,0 -9.96,-4.46 -9.96,-9.96l-1.04 -266.67z" class="fil0"/><path d="M160 283.33c14.32,0 27.89,-12.81 38.24,-33.51 11.39,-22.77 18.43,-54.52 18.43,-89.83 0,-35.31 -7.05,-67.06 -18.43,-89.83 -10.35,-20.7 -23.91,-33.51 -38.24,-33.51 -14.32,0 -27.89,12.81 -38.24,33.51 -11.39,22.77 -18.43,54.52 -18.43,89.83 0,35.31 7.05,67.06 18.43,89.83 10.35,20.7 23.91,33.51 38.24,33.51zm56.05 -24.6c-13.77,27.56 -33.55,44.6 -56.05,44.6 -22.5,0 -42.28,-17.05 -56.05,-44.6 -12.74,-25.47 -20.62,-60.41 -20.62,-98.73 0,-38.33 7.88,-73.26 20.62,-98.73 13.77,-27.56 33.55,-44.6 56.05,-44.6 22.5,0 42.28,17.05 56.05,44.6 12.74,25.47 20.62,60.41 20.62,98.73 0,38.33 -7.88,73.26 -20.62,98.73z" class="fil0"/><path d="M45.7 104.04c-5.5,0.02 -9.98,-4.42 -10,-9.92 -0.02,-5.5 4.42,-9.98 9.92,-10l228.68 -1.04c5.5,-0.02 9.98,4.42 10,9.92 0.02,5.5 -4.42,9.98 -9.92,10l-228.68 1.04z" class="fil0"/><path d="M45.7 237.42c-5.5,0.02 -9.98,-4.42 -10,-9.92 -0.02,-5.5 4.42,-9.98 9.92,-10l228.68 -1.04c5.5,-0.02 9.98,4.42 10,9.92 0.02,5.5 -4.42,9.98 -9.92,10l-228.68 1.04z" class="fil0"/></g></svg>