<svg xmlns="http://www.w3.org/2000/svg" id="undraw_reading_time_gvg0" width="613.225" height="425.148" viewBox="0 0 613.225 425.148"><path id="Path_31" fill="#e6e6e6" d="M236.6,645.5S158.6,609.6,186,584.7,236.6,645.5,236.6,645.5Z" data-name="Path 31" transform="translate(-165.136 -277.187)"/><path id="Path_32" fill="#e6e6e6" d="M254.235,636.888s-35.851-117.795,16.941-112.161S254.235,636.888,254.235,636.888Z" data-name="Path 32" transform="translate(-184.129 -260.194)"/><path id="Path_33" fill="#e6e6e6" d="M221.829,671.266l1.5,19.7.024.34a90.537,90.537,0,0,0,.466,9.213c2.042,20.1,10.82,29.258,21.078,29.258s18.654-9.16,20.7-29.258a90.524,90.524,0,0,0,.466-9.213l.012-.275.006-.066,1.511-19.7Z" data-name="Path 33" transform="translate(-177.863 -305.019)"/><path id="Path_34" fill="#fff" d="M266.743,699.637l-.006.066-.012.275a90.549,90.549,0,0,1-.466,9.213H224.485a90.523,90.523,0,0,1-.466-9.213l-.024-.34Z" data-name="Path 34" transform="translate(-178.525 -313.686)"/><path id="Path_35" fill="#e6e6e6" d="M974.691,669.343s-60.388-27.8-39.173-47.077S974.691,669.343,974.691,669.343Z" data-name="Path 35" transform="translate(-394.502 -288.977)"/><path id="Path_36" fill="#e6e6e6" d="M988.345,662.673s-27.756-91.2,13.116-86.837S988.345,662.673,988.345,662.673Z" data-name="Path 36" transform="translate(-409.207 -275.82)"/><path id="Path_37" fill="#e6e6e6" d="M963.256,689.289l1.165,15.256.018.263a70.13,70.13,0,0,0,.361,7.133c1.581,15.561,8.377,22.652,16.319,22.652s14.442-7.092,16.023-22.652a70.094,70.094,0,0,0,.361-7.133l.009-.213,0-.051,1.17-15.256Z" data-name="Path 37" transform="translate(-404.355 -310.525)"/><path id="Path_38" fill="#fff" d="M998.029,711.255l0,.051-.009.213a70.022,70.022,0,0,1-.36,7.133H965.313a70.093,70.093,0,0,1-.361-7.133l-.018-.263Z" data-name="Path 38" transform="translate(-404.868 -317.235)"/><path id="Path_39" fill="#e6e6e6" d="M447.88,314.725v-26.8h-4.167v26.8a5.556,5.556,0,1,0,4.167,0Z" data-name="Path 39" transform="translate(-244.583 -187.915)"/><path id="Path_40" fill="#e6e6e6" d="M424,563.8H395.525V217.926H384.413V563.8H355.938a25.7,25.7,0,0,0-25.7,25.7H449.7A25.7,25.7,0,0,0,424,563.8Z" data-name="Path 40" transform="translate(-210.981 -166.532)"/><path id="Path_41" fill="#c2efff" d="M330.323,246.715H449.665l-7.3-91.218a12.639,12.639,0,0,0-12.533-11.57h-79.68a12.639,12.639,0,0,0-12.533,11.57Z" data-name="Path 41" transform="translate(-211.006 -143.926)"/><path id="Path_42" fill="#a0616a" d="M563.746,522.395h0a8.591,8.591,0,0,0-9.9,7.181l-3.36,22.05,11.432,3.032,8.376-20.544a8.591,8.591,0,0,0-6.546-11.718Z" data-name="Path 42" transform="translate(-278.261 -259.506)"/><path id="Path_43" fill="#f48fb1" d="M534.191,561.559c6.344,25.213,3.614,48.273-20.011,66.38C485.844,620.127,467,601.281,455.5,573.892a13.671,13.671,0,0,1,7.885-18.122h0a13.664,13.664,0,0,1,15.042,3.877l27.8,32.089,13.043-32.357Z" data-name="Path 43" transform="translate(-248.92 -269.481)"/><path id="Path_44" fill="#e6e6e6" d="M758.151,739.048c-25.873-1.374-41.946-10.258-45.838-28.475l4.167-7.64,47.71,21.734a6.673,6.673,0,0,1-.469,12.338Z" data-name="Path 44" transform="translate(-327.697 -314.693)"/><path id="Path_45" fill="#e6e6e6" d="M723.8,736.786c-13.443-.407-26.371-.281-38.621.548a8.182,8.182,0,0,1-8.714-7.512l-.735-9.193-10.418-16.669,9.029-9.029c15.173,15.112,31.814,27.805,51.577,35.351a3.564,3.564,0,0,1-2.117,6.5Z" data-name="Path 45" transform="translate(-313.339 -312.249)"/><path id="Path_46" fill="#2f2e41" d="M591.922,645.192c-17.166,30.716-34.049,51.422-56.256,62.507-27.322,9.017-47.29-2.93-62.854-27.433L517.956,650.4l6.6,6.6,59.8-45.5a7.635,7.635,0,0,1,10.74.239l51,62.628-6.251,10.418Z" data-name="Path 46" transform="translate(-254.534 -286.121)"/><path id="Path_47" fill="#2f2e41" d="M497.4,548.54l-23.614-36.115,5.556-10.418L510.6,534.649Z" data-name="Path 47" transform="translate(-144.734 -153.354)"/><circle id="Ellipse_1" cx="23.614" cy="23.614" r="23.614" fill="#a0616a" data-name="Ellipse 1" transform="translate(192.929 232.668)"/><path id="Path_48" fill="#a0616a" d="M467.7,562.8l-26.392-9.029a32.777,32.777,0,0,0,4.862-20.836H467.7C466.48,543.53,466.3,553.581,467.7,562.8Z" data-name="Path 48" transform="translate(-244.911 -262.761)"/><path id="Path_49" fill="#f48fb1" d="M517.193,633.024c-3.957,1.625-4.246,6.891-7.987,8.682-18.085,8.653-37.219,15.674-50.353,28.128-30.693-20.843-59.141-85.577-22.225-113.9,12.6,7.374,23.857,12.651,23.614,0Z" data-name="Path 49" transform="translate(-238.144 -269.787)"/><path id="Path_50" d="M503.658,614.312,490.809,609.8l-25.35,19.794L454.1,588.683c-.788-2.837-2.065-1.4-3.9.572a13.657,13.657,0,0,0-22.921,9.415c-1.352,29.674,7.6,54.779,29.849,73.982,29.105-6.232,41.457-25.9,46.533-51.394l-1.376-.917Q503.043,617.385,503.658,614.312Z" data-name="Path 50" opacity=".2" transform="translate(-240.583 -278.855)"/><path id="Path_51" fill="#2f2e41" d="M459.108,467.915c7.789,1.78,16.655,4.3,17.152,6.645,8.013,2.019,14.06,6.855,15.3,14.228a4.416,4.416,0,0,1-4.43,5.121c-4.357-.056-10.9-.473-15.218-2.278-12.548,8.085-14.654,29.113-9.174,43.427l-8.623-.791-8.921-26.115-2.279,25.089-19.678-2.6,2.535-31.993a47.667,47.667,0,0,1,7.485-21.136,18,18,0,0,1,1.408-1.825A25.01,25.01,0,0,1,459.108,467.915Z" data-name="Path 51" transform="translate(-239.388 -242.696)"/><path id="Path_52" fill="#3f3d56" d="M380.285,421.086,401.9,446.494l32.417-38.258-21.9-26.576Z" data-name="Path 52" transform="translate(-116.17 -116.59)"/><path id="Path_53" fill="#f2f2f2" d="M597.308,554.754l-25.7-21.027c1.46-3.5,8.469-2.336,8.469-2.336l20.118,20.4a11.005,11.005,0,0,1,1.786,2.384h0Z" data-name="Path 53" transform="translate(-284.714 -262.232)"/><path id="Path_54" fill="#3f3d56" d="M583.19,552.991l-29.2-22.78-32.417,49.064,30.519,20.589c2.921,1.168,5.841-.876,5.841-.876l29.789-45.559Z" data-name="Path 54" transform="translate(-269.428 -261.929)"/><rect id="Rectangle_34" width=".473" height="23.018" fill="#00b0ff" data-name="Rectangle 34" transform="matrix(0.584, -0.812, 0.812, 0.584, 287.925, 275.778)"/><rect id="Rectangle_35" width="44.469" height=".473" fill="#00b0ff" data-name="Rectangle 35" transform="matrix(0.552, -0.834, 0.834, 0.552, 282.612, 330.942)"/><rect id="Rectangle_36" width=".473" height="24.65" fill="#00b0ff" data-name="Rectangle 36" transform="translate(259.886 317.826) rotate(-53.656)"/><rect id="Rectangle_37" width="44.478" height=".473" fill="#00b0ff" data-name="Rectangle 37" transform="translate(259.248 312.539) rotate(-55.162)"/><rect id="Rectangle_38" width=".292" height="31.367" fill="#b3b3b3" data-name="Rectangle 38" transform="translate(292.308 269.084) rotate(-47.455)"/><rect id="Rectangle_39" width=".292" height="32.218" fill="#b3b3b3" data-name="Rectangle 39" transform="translate(290.388 269.27) rotate(-48.561)"/><rect id="Rectangle_40" width=".292" height="32.641" fill="#b3b3b3" data-name="Rectangle 40" transform="matrix(0.64, -0.768, 0.768, 0.64, 288.88, 269.7)"/><path id="Path_55" fill="#a0616a" d="M544.824,592.417h0A8.591,8.591,0,0,0,532.8,594.66l-12.487,18.481,9.029,7.64,16.374-14.971a8.591,8.591,0,0,0-.891-13.393Z" data-name="Path 55" transform="translate(-269.044 -280.462)"/><path id="Path_56" fill="#f48fb1" d="M503.658,615.258c-5.075,25.5-17.427,45.162-46.533,51.394-22.253-19.2-31.2-44.308-29.849-73.982a13.671,13.671,0,0,1,14.891-12.993h0a13.664,13.664,0,0,1,11.928,9.951l11.364,40.909L491.113,606.9Z" data-name="Path 56" transform="translate(-240.583 -277.023)"/><path id="Path_57" fill="#3f3d56" d="M612.951,611.481H0v-1.515H613.225Z" data-name="Path 57" transform="translate(0 -186.334)"/><path id="Path_58" fill="#e6e6e6" d="M619.2,235.433a1.39,1.39,0,0,0-1.389,1.389V345.167a1.39,1.39,0,0,0,1.389,1.389h90.287a1.391,1.391,0,0,0,1.389-1.389V236.822a1.391,1.391,0,0,0-1.389-1.389Z" data-name="Path 58" transform="translate(-298.829 -171.88)"/><path id="Path_59" fill="#fff" d="M633.312,340.526h71.535V250.933H633.312Z" data-name="Path 59" transform="translate(-303.564 -176.615)"/><path id="Path_60" fill="#e6e6e6" d="M835.881,276.433a.83.83,0,0,0-.829.829v53.9a.83.83,0,0,0,.829.829h64.683a.83.83,0,0,0,.829-.829v-53.9a.83.83,0,0,0-.829-.829Z" data-name="Path 60" transform="translate(-365.191 -184.405)"/><path id="Path_61" fill="#fff" d="M844.305,285.687v42.708h53.488V285.687Z" data-name="Path 61" transform="translate(-368.018 -187.231)"/><path id="Path_62" fill="#e6e6e6" d="M690.358,233.755H665.1a3.465,3.465,0,0,1-3.007-5.209l12.631-21.877.032-.054a3.431,3.431,0,0,1,2.63-1.666l.018,0c.108-.01.217-.015.328-.015a3.437,3.437,0,0,1,3.007,1.736l12.631,21.877a3.473,3.473,0,0,1-3.007,5.209ZM664.4,230.279a.715.715,0,0,0,.1.351.683.683,0,0,0,.6.347h25.262a.682.682,0,0,0,.6-.347.713.713,0,0,0,.1-.35.684.684,0,0,0-.1-.344l-12.631-21.878a.695.695,0,0,0-1.2,0l-12.631,21.877A.682.682,0,0,0,664.4,230.279Z" data-name="Path 62" transform="translate(-312.21 -162.563)"/><circle id="Ellipse_2" cx="2.084" cy="2.084" r="2.084" fill="#e6e6e6" data-name="Ellipse 2" transform="translate(363.433 44.801)"/><path id="Path_63" fill="#e6e6e6" d="M885.819,272.06h-13.7a1.879,1.879,0,0,1-1.63-2.824l6.848-11.861.017-.029a1.861,1.861,0,0,1,1.426-.9h.01c.058-.005.118-.008.178-.008a1.864,1.864,0,0,1,1.631.941l6.848,11.861a1.883,1.883,0,0,1-1.63,2.824Zm-14.074-1.885a.385.385,0,0,0,.052.19.37.37,0,0,0,.326.188h13.7a.37.37,0,0,0,.326-.188.387.387,0,0,0,.052-.19.371.371,0,0,0-.052-.186L879.3,258.127a.377.377,0,0,0-.652,0L871.8,269.989A.369.369,0,0,0,871.745,270.175Z" data-name="Path 63" transform="translate(-375.94 -178.295)"/><circle id="Ellipse_3" cx="1.13" cy="1.13" r="1.13" fill="#e6e6e6" data-name="Ellipse 3" transform="translate(501.901 79.456)"/><path id="Path_64" fill="#e6e6e6" d="M633.571,324.98a18.4,18.4,0,0,1,10.6-9.951,18.183,18.183,0,0,1,15.149.943c5.42,2.876,9.753,7.4,15.257,10.152a39.017,39.017,0,0,0,17.214,4.055,38.531,38.531,0,0,0,19.3-5.01,1.043,1.043,0,0,0-1.052-1.8,37.048,37.048,0,0,1-35.025.643c-5.522-2.9-9.9-7.571-15.523-10.284a20.058,20.058,0,0,0-15.44-.867,20.728,20.728,0,0,0-12.493,11.564c-.506,1.241,1.509,1.781,2.009.554Z" data-name="Path 64" transform="translate(-303.004 -195.183)"/><path id="Path_65" fill="#e6e6e6" d="M631.548,355.935a79.316,79.316,0,0,1,35.1.122c10.255,2.378,20.842,6.657,31.416,3.466a19.1,19.1,0,0,0,11.48-8.665c.649-1.174-1.149-2.227-1.8-1.052-4.569,8.263-15.274,9.657-23.729,8.3-5.65-.906-11.094-2.722-16.655-4.022a81.174,81.174,0,0,0-36.368-.159C629.686,354.218,630.24,356.227,631.548,355.935Z" data-name="Path 65" transform="translate(-302.627 -206.662)"/><path id="Path_66" fill="#e6e6e6" d="M630.464,290.37a82.39,82.39,0,0,1,33.366,1.187c10.206,2.5,20.182,8.213,30.973,7.227,5-.457,9.942-2.294,13.337-6.116.888-1-.581-2.478-1.473-1.473a17.62,17.62,0,0,1-11.473,5.468c-4.988.532-9.889-.5-14.636-1.97-5.255-1.625-10.36-3.684-15.7-5.027a84.385,84.385,0,0,0-34.946-1.3c-1.319.225-.76,2.233.554,2.009Z" data-name="Path 66" transform="translate(-302.294 -187.671)"/><path id="Path_67" fill="#e6e6e6" d="M857.584,283.888a36.323,36.323,0,0,1,9.53,17.771,35.875,35.875,0,0,1-7.756,30.462c-.863,1.016.6,2.5,1.473,1.473a38.485,38.485,0,0,0,8.819-19.914,37.985,37.985,0,0,0-10.593-31.266c-.94-.959-2.413.515-1.474,1.473Z" data-name="Path 67" transform="translate(-371.982 -186.137)"/><path id="Path_68" fill="#e6e6e6" d="M898.1,278.185c-6.385,4.683-9.96,12.242-10.463,20.061-.523,8.135,2.579,15.992,7.575,22.308a43.381,43.381,0,0,0,10.313,9.309c1.125.736,2.17-1.067,1.052-1.8a38.427,38.427,0,0,1-14.736-17.218,27.863,27.863,0,0,1-.06-21.348,22.809,22.809,0,0,1,7.371-9.515c1.07-.785.032-2.594-1.052-1.8Z" data-name="Path 68" transform="translate(-381.237 -184.879)"/><circle id="Ellipse_4" cx="9.723" cy="9.723" r="9.723" fill="#e6e6e6" data-name="Ellipse 4" transform="translate(360.655 94.807)"/></svg>