<svg xmlns="http://www.w3.org/2000/svg" xmlns:xlink="http://www.w3.org/1999/xlink" id="Group_30" width="373.66" height="248.574" data-name="Group 30" viewBox="0 0 373.66 248.574"><defs><linearGradient id="linear-gradient" x1=".5" x2=".5" y1="1" gradientUnits="objectBoundingBox"><stop offset="0" stop-color="gray" stop-opacity=".251"/><stop offset=".535" stop-color="gray" stop-opacity=".122"/><stop offset="1" stop-color="gray" stop-opacity=".102"/></linearGradient></defs><path id="Path_185" fill="#3f3d56" d="M245.573,644.3c0,8.176-4.861,11.031-10.856,11.031-.14,0-.278,0-.416-.005-.278-.006-.553-.018-.825-.038-5.412-.383-9.616-3.385-9.616-10.988,0-7.868,10.054-17.8,10.812-18.534h0l.044-.043S245.573,636.123,245.573,644.3Z" data-name="Path 185" transform="translate(-199.92 -425.337)"/><path id="Path_186" fill="#f2f2f2" d="M242.3,654.081l3.971-5.548-3.981,6.157-.011.637c-.278-.006-.553-.018-.825-.038l.428-8.18,0-.063.008-.012.04-.773-3.991-6.173,4,5.593.01.164.324-6.181-3.417-6.378,3.458,5.292.337-12.813,0-.044v.043l-.056,10.1,3.4-4.006-3.415,4.876-.09,5.534,3.176-5.31-3.189,6.125-.05,3.076,4.61-7.392-4.628,8.466Z" data-name="Path 186" transform="translate(-207.902 -425.337)"/><path id="Path_187" fill="url(#linear-gradient)" d="M469.586,398.623c-2.9-10.529-19.006-18.289-31.573-20.292v-5.058q.348-.13.693-.267a11.175,11.175,0,0,0-.6-2.964,30.5,30.5,0,0,0,13.363-10.569,34.366,34.366,0,0,0-6.786-52.98,6.743,6.743,0,0,0-3.015-12.421,13.161,13.161,0,0,0-20.489-15.289A13.157,13.157,0,0,1,440.513,290.4c0,.115-.007.229-.01.344a13.159,13.159,0,1,0-25.509,4.923,6.58,6.58,0,0,0-4.355,9.638,34.368,34.368,0,0,0-8.381,54.66,30.507,30.507,0,0,0,12.395,9.822v8.43c-12.7,1.814-29.424,9.719-32.347,20.507-2.547,9.4-5.265,19.726-6.618,25.788,11.593,8.146,35.92,12.929,51.165,12.929,14.485,0,38.16-4.317,49.412-11.735C475.048,419.047,472.244,408.268,469.586,398.623Zm-23.224-97.255c0,.12,0,.238-.011.357a6.581,6.581,0,0,0-5.465-6.112q.191-.324.365-.659a6.581,6.581,0,0,1,5.111,6.414Z" data-name="Path 187" transform="translate(-285.999 -226.938)"/><path id="Path_188" fill="#6c63ff" d="M428.7,567.943c14.072,0,37.073-4.194,48-11.4-1.184-6.471-3.908-16.942-6.49-26.313-3.288-11.935-24.04-20.208-36.419-20.208H421.872c-12.418,0-33.2,8.322-36.446,20.307-2.474,9.134-5.115,19.165-6.429,25.054C390.26,563.3,413.894,567.943,428.7,567.943Z" data-name="Path 188" transform="translate(-287.874 -359.741)"/><circle id="Ellipse_16" cx="33.385" cy="33.385" r="33.385" fill="#f55f44" data-name="Ellipse 16" transform="translate(107.219 76.003)"/><path id="Path_189" fill="#fda57d" d="M300.445,306.181h17.467a2.613,2.613,0,0,1,2.614,2.613v17.86a10.731,10.731,0,0,1-10.731,10.731h-1.232a10.731,10.731,0,0,1-10.731-10.731v-17.86A2.613,2.613,0,0,1,300.445,306.181Z" data-name="Path 189" transform="translate(-168.854 -173.587)"/><path id="Path_190" d="M479.8,488.015A29.438,29.438,0,0,0,490.77,485.9a10.874,10.874,0,0,0-10.846-10.17h-.93a10.878,10.878,0,0,0-10.832,9.9A29.434,29.434,0,0,0,479.8,488.015Z" data-name="Path 190" opacity=".05" transform="translate(-338.425 -340.301)"/><circle id="Ellipse_17" cx="29.536" cy="29.536" r="29.536" fill="#fda57d" data-name="Ellipse 17" transform="translate(111.128 85.806)"/><circle id="Ellipse_18" cx="6.393" cy="6.393" r="6.393" fill="#f55f44" data-name="Ellipse 18" transform="translate(124.268 70.32)"/><circle id="Ellipse_19" cx="6.393" cy="6.393" r="6.393" fill="#f55f44" data-name="Ellipse 19" transform="translate(146.998 70.32)"/><circle id="Ellipse_20" cx="12.786" cy="12.786" r="12.786" fill="#f55f44" data-name="Ellipse 20" transform="translate(128.529 53.272)"/><path id="Path_191" fill="#f55f44" d="M521.392,322.1a6.363,6.363,0,0,0-3.568,1.088,6.39,6.39,0,0,1,5.715,11.321,6.389,6.389,0,0,0-2.147-12.408Z" data-name="Path 191" transform="translate(-366.581 -253.201)"/><path id="Path_192" fill="#f55f44" d="M489.173,281.094a12.733,12.733,0,0,0-8.132,2.919,12.785,12.785,0,0,1,14.132,21.155,12.784,12.784,0,0,0-6-24.074Z" data-name="Path 192" transform="translate(-345.727 -229.953)"/><path id="Path_193" fill="#f55f44" d="M444.05,356.868s3.552,23.441,48.3,10.655l-22.02-19.179Z" data-name="Path 193" transform="translate(-324.755 -268.08)"/><rect id="Rectangle_51" width="30.771" height="13.094" fill="#6c63ff" data-name="Rectangle 51" rx="6.547" transform="translate(19.586 223.029)"/><g id="Group_22" data-name="Group 22" opacity=".7" transform="translate(234.135 209.946)"><path id="Path_194" fill="url(#linear-gradient)" d="M732.827,652.52V647.8H709.236v21.822a4.6,4.6,0,0,0,4.6,4.6h14.391a4.6,4.6,0,0,0,4.6-4.6v-4.836a6.134,6.134,0,1,0,0-12.267Zm0,9.908v-7.549a3.775,3.775,0,1,1,0,7.549Z" data-name="Path 194" transform="translate(-709.236 -647.802)"/></g><path id="Path_195" fill="#6c63ff" d="M754.627,660.4a5.6,5.6,0,1,0,5.6,5.6A5.6,5.6,0,0,0,754.627,660.4Zm0,9.047A3.446,3.446,0,1,1,758.074,666a3.446,3.446,0,0,1-3.446,3.446Z" data-name="Path 195" transform="translate(-497.66 -445)"/><path id="Path_196" d="M754.627,660.4a5.6,5.6,0,1,0,5.6,5.6A5.6,5.6,0,0,0,754.627,660.4Zm0,9.047A3.446,3.446,0,1,1,758.074,666a3.446,3.446,0,0,1-3.446,3.446Z" data-name="Path 196" opacity=".1" transform="translate(-497.66 -445)"/><path id="Path_197" fill="#6c63ff" d="M543.642,487.455h21.54v19.9a4.222,4.222,0,0,1-4.222,4.222H547.864a4.222,4.222,0,0,1-4.222-4.222Z" data-name="Path 197" transform="translate(-308.215 -276.36)"/><rect id="Rectangle_52" width="279.584" height="9.477" fill="#e0e0e0" data-name="Rectangle 52" transform="translate(0 235.22)"/><g id="Group_23" data-name="Group 23" opacity=".7" transform="translate(80.343 166.753)"><rect id="Rectangle_53" width="118.899" height="68.467" fill="url(#linear-gradient)" data-name="Rectangle 53" rx="14.5"/></g><rect id="Rectangle_54" width="114.591" height="67.203" fill="#535461" data-name="Rectangle 54" rx="26.835" transform="translate(82.497 168.016)"/><circle id="Ellipse_21" cx="3.877" cy="3.877" r="3.877" fill="#fff" data-name="Ellipse 21" transform="translate(135.915 197.741)"/><rect id="Rectangle_55" width="255.89" height="3.877" fill="#e0e0e0" data-name="Rectangle 55" transform="translate(11.847 244.697)"/><rect id="Rectangle_56" width="255.89" height="1.292" data-name="Rectangle 56" opacity=".1" transform="translate(11.847 244.697)"/><path id="Path_198" d="M747.507,650.455v19.924a4.2,4.2,0,0,1-4.2,4.2h2.154a4.2,4.2,0,0,0,4.2-4.2V650.455Z" data-name="Path 198" opacity=".1" transform="translate(-494.417 -439.36)"/><path id="Path_199" fill="#eee" d="M720.684,612.651a1.258,1.258,0,0,0-.951.483c-.282.512.229,1.09.7,1.442a9.268,9.268,0,0,1,2.36,2.2,2.754,2.754,0,0,1,.13,3.044c-.837,1.136-2.836,1.38-3.029,2.778-.124.9.652,1.663,1.438,2.113,1.94,1.111,4.441,1.408,5.847,3.147a4.533,4.533,0,0,1,3.178-2.182c1.3-.3,2.643-.273,3.957-.473a1.368,1.368,0,0,0,1.092-.579c.367-.745-.68-1.64-.318-2.388.275-.57,1.083-.525,1.673-.754a2.179,2.179,0,0,0,1.084-2.6,4.9,4.9,0,0,0-1.853-2.406,20.752,20.752,0,0,0-7.462-3.449,19.136,19.136,0,0,0-3.966-.918A19.831,19.831,0,0,0,720.684,612.651Z" data-name="Path 199" transform="translate(-481.006 -417.614)"/><rect id="Rectangle_57" width="188.153" height="128.907" fill="#535461" data-name="Rectangle 57" opacity=".1" transform="translate(185.507)"/><g id="Group_24" data-name="Group 24" opacity=".5" transform="translate(202.663 12.695)"><rect id="Rectangle_58" width="44.291" height="40.864" fill="url(#linear-gradient)" data-name="Rectangle 58" rx="4.5"/></g><rect id="Rectangle_59" width="43.269" height="39.873" fill="#f5f5f5" data-name="Rectangle 59" rx="4.5" transform="translate(203.204 13.012)"/><rect id="Rectangle_60" width="7.297" height="6.567" fill="#6c63ff" data-name="Rectangle 60" rx="3.284" transform="translate(206.538 19.58)"/><rect id="Rectangle_61" width="29.008" height=".73" fill="#e0e0e0" data-name="Rectangle 61" rx=".365" transform="translate(216.025 19.58)"/><rect id="Rectangle_62" width="29.008" height=".73" fill="#e0e0e0" data-name="Rectangle 62" rx=".365" transform="translate(216.025 21.769)"/><rect id="Rectangle_63" width="39.224" height=".73" fill="#e0e0e0" data-name="Rectangle 63" rx=".365" transform="translate(205.809 29.715)"/><rect id="Rectangle_64" width="39.224" height=".73" fill="#e0e0e0" data-name="Rectangle 64" rx=".365" transform="translate(205.809 31.904)"/><rect id="Rectangle_65" width="39.224" height=".73" fill="#e0e0e0" data-name="Rectangle 65" rx=".365" transform="translate(205.809 34.823)"/><rect id="Rectangle_66" width="22.621" height=".73" fill="#e0e0e0" data-name="Rectangle 66" rx=".365" transform="translate(205.809 37.012)"/><rect id="Rectangle_67" width="39.224" height=".73" fill="#e0e0e0" data-name="Rectangle 67" rx=".365" transform="translate(205.809 39.924)"/><rect id="Rectangle_68" width="39.224" height=".73" fill="#e0e0e0" data-name="Rectangle 68" rx=".365" transform="translate(205.809 42.113)"/><rect id="Rectangle_69" width="39.224" height=".73" fill="#e0e0e0" data-name="Rectangle 69" rx=".365" transform="translate(205.809 45.032)"/><rect id="Rectangle_70" width="22.621" height=".73" fill="#e0e0e0" data-name="Rectangle 70" rx=".365" transform="translate(205.809 47.221)"/><g id="Group_25" data-name="Group 25" opacity=".5" transform="translate(209.348 22.138)"><rect id="Rectangle_71" width="44.291" height="40.864" fill="url(#linear-gradient)" data-name="Rectangle 71" rx="4.5"/></g><rect id="Rectangle_72" width="43.269" height="39.873" fill="#fff" data-name="Rectangle 72" rx="4.5" transform="translate(209.888 22.455)"/><rect id="Rectangle_73" width="7.297" height="6.567" fill="#6c63ff" data-name="Rectangle 73" rx="3.284" transform="translate(213.223 29.023)"/><rect id="Rectangle_74" width="29.008" height=".73" fill="#e0e0e0" data-name="Rectangle 74" rx=".365" transform="translate(222.709 29.023)"/><rect id="Rectangle_75" width="29.008" height=".73" fill="#e0e0e0" data-name="Rectangle 75" rx=".365" transform="translate(222.709 31.212)"/><rect id="Rectangle_76" width="39.224" height=".73" fill="#e0e0e0" data-name="Rectangle 76" rx=".365" transform="translate(212.493 39.158)"/><rect id="Rectangle_77" width="39.224" height=".73" fill="#e0e0e0" data-name="Rectangle 77" rx=".365" transform="translate(212.493 41.347)"/><rect id="Rectangle_78" width="39.224" height=".73" fill="#e0e0e0" data-name="Rectangle 78" rx=".365" transform="translate(212.493 44.266)"/><rect id="Rectangle_79" width="22.621" height=".73" fill="#e0e0e0" data-name="Rectangle 79" rx=".365" transform="translate(212.493 46.455)"/><rect id="Rectangle_80" width="39.224" height=".73" fill="#e0e0e0" data-name="Rectangle 80" rx=".365" transform="translate(212.493 49.367)"/><rect id="Rectangle_81" width="39.224" height=".73" fill="#e0e0e0" data-name="Rectangle 81" rx=".365" transform="translate(212.493 51.556)"/><rect id="Rectangle_82" width="39.224" height=".73" fill="#e0e0e0" data-name="Rectangle 82" rx=".365" transform="translate(212.493 54.475)"/><rect id="Rectangle_83" width="22.621" height=".73" fill="#e0e0e0" data-name="Rectangle 83" rx=".365" transform="translate(212.493 56.664)"/><rect id="Rectangle_84" width="24.394" height="23.438" fill="url(#linear-gradient)" data-name="Rectangle 84" transform="translate(271.944 28.32)"/><rect id="Rectangle_85" width="23.629" height="22.385" fill="#f5f5f5" data-name="Rectangle 85" transform="translate(272.327 28.895)"/><g id="Group_26" data-name="Group 26" opacity=".6" transform="translate(280.075 42.192)"><rect id="Rectangle_86" width="8.514" height="1.148" fill="#6c63ff" data-name="Rectangle 86"/></g><rect id="Rectangle_87" width="14.541" height="1.148" fill="#bdbdbd" data-name="Rectangle 87" transform="translate(276.871 44.296)"/><g id="Group_27" data-name="Group 27" opacity=".5" transform="translate(307.511 7.813)"><rect id="Rectangle_88" width="53.194" height="62.5" fill="url(#linear-gradient)" data-name="Rectangle 88"/></g><rect id="Rectangle_89" width="50.428" height="60.111" fill="#fff" data-name="Rectangle 89" transform="translate(309.146 8.819)"/><rect id="Rectangle_90" width="35.463" height="1.509" fill="#e0e0e0" data-name="Rectangle 90" transform="translate(316.692 35.192)"/><rect id="Rectangle_91" width="35.463" height="1.509" fill="#e0e0e0" data-name="Rectangle 91" transform="translate(316.692 45.126)"/><rect id="Rectangle_92" width="35.463" height="1.509" fill="#e0e0e0" data-name="Rectangle 92" transform="translate(316.692 47.767)"/><rect id="Rectangle_93" width="14.965" height="1.509" fill="#e0e0e0" data-name="Rectangle 93" transform="translate(316.692 42.486)"/><rect id="Rectangle_94" width="11.192" height="1.509" fill="#3ad29f" data-name="Rectangle 94" opacity=".6" transform="translate(340.962 42.486)"/><rect id="Rectangle_95" width="11.192" height="1.509" fill="#6c63ff" data-name="Rectangle 95" transform="translate(329.141 53.929)"/><g id="Group_28" data-name="Group 28" opacity=".5" transform="translate(276.474 87.891)"><rect id="Rectangle_96" width="31.607" height="25.961" fill="url(#linear-gradient)" data-name="Rectangle 96"/></g><rect id="Rectangle_97" width="30.809" height="25.04" fill="#f2f2f2" data-name="Rectangle 97" transform="translate(276.843 88.382)"/><rect id="Rectangle_98" width="30.809" height="5.585" fill="#6c63ff" data-name="Rectangle 98" transform="translate(276.843 88.382)"/><rect id="Rectangle_99" width="30.809" height="5.585" data-name="Rectangle 99" opacity=".1" transform="translate(276.843 88.382)"/><rect id="Rectangle_100" width="25.899" height="3.253" fill="#e0e0e0" data-name="Rectangle 100" transform="translate(279.297 95.993)"/><rect id="Rectangle_101" width="18.903" height="1.105" fill="#e0e0e0" data-name="Rectangle 101" transform="translate(279.297 101.7)"/><rect id="Rectangle_102" width="12.275" height="1.105" fill="#e0e0e0" data-name="Rectangle 102" transform="translate(279.297 103.603)"/><rect id="Rectangle_103" width="16.202" height="1.105" fill="#e0e0e0" data-name="Rectangle 103" transform="translate(279.297 105.505)"/><rect id="Rectangle_104" width="18.903" height="1.105" fill="#e0e0e0" data-name="Rectangle 104" transform="translate(279.297 107.408)"/><rect id="Rectangle_105" width="6.321" height="1.105" fill="#e0e0e0" data-name="Rectangle 105" transform="translate(279.297 109.31)"/><g id="Group_29" data-name="Group 29" opacity=".5" transform="translate(256.684 78.369)"><rect id="Rectangle_106" width="39.176" height="32.178" fill="url(#linear-gradient)" data-name="Rectangle 106"/></g><rect id="Rectangle_107" width="38.187" height="31.037" fill="#fff" data-name="Rectangle 107" transform="translate(257.14 78.978)"/><rect id="Rectangle_108" width="38.187" height="6.922" fill="#6c63ff" data-name="Rectangle 108" transform="translate(257.14 78.978)"/><rect id="Rectangle_109" width="32.102" height="4.032" fill="#f5f5f5" data-name="Rectangle 109" transform="translate(260.183 88.411)"/><rect id="Rectangle_110" width="23.43" height="1.369" fill="#e0e0e0" data-name="Rectangle 110" transform="translate(260.183 95.485)"/><rect id="Rectangle_111" width="15.214" height="1.369" fill="#e0e0e0" data-name="Rectangle 111" transform="translate(260.183 97.843)"/><rect id="Rectangle_112" width="20.083" height="1.369" fill="#e0e0e0" data-name="Rectangle 112" transform="translate(260.183 100.201)"/><rect id="Rectangle_113" width="23.43" height="1.369" fill="#e0e0e0" data-name="Rectangle 113" transform="translate(260.183 102.56)"/><rect id="Rectangle_114" width="7.835" height="1.369" fill="#e0e0e0" data-name="Rectangle 114" transform="translate(260.183 104.918)"/><rect id="Rectangle_115" width="9.128" height="1.217" fill="#69f0ae" data-name="Rectangle 115" transform="translate(261.857 89.78)"/><circle id="Ellipse_22" cx="5.289" cy="5.289" r="5.289" fill="#535461" data-name="Ellipse 22" opacity=".1" transform="translate(197.975 153.24)"/><circle id="Ellipse_23" cx="5.289" cy="5.289" r="5.289" fill="#535461" data-name="Ellipse 23" opacity=".1" transform="translate(207.799 136.239)"/></svg>