<svg xmlns="http://www.w3.org/2000/svg" id="Group_114" width="486.466" height="333.499" data-name="Group 114" viewBox="0 0 486.466 333.499"><path id="Path_730" fill="#ffb9b9" d="M817.113,628.928l36.748-34.306,17.426-16.073a14.138,14.138,0,0,0-2.694-22.737h0a14.138,14.138,0,0,0-19.852,6.7L843.01,575.66l-35.6,36.922Z" data-name="Path 730" transform="translate(-718.118 -432.426)"/><path id="Path_731" fill="#55c2b4" d="M945.925,606.676l12.9,21.495-52.387,32.135c-46.184-33.2-55.327-44-44.011-96.88l9-9,43.517,70.581Z" data-name="Path 731" transform="translate(-851.733 -432.426)"/><path id="Path_732" fill="#3f3d56" d="M823.8,546.914a3.172,3.172,0,0,1,3.971-.391l24.259,15.8a3.191,3.191,0,0,1,.51,4.935l-61.694,61.427a3.191,3.191,0,0,1-4.547-.044L766.08,607.717a3.2,3.2,0,0,1,.065-4.5Z" data-name="Path 732" transform="translate(-653.529 -432.426)"/><path id="Path_733" fill="#fff" d="M849.867,564.015l-2.511-1.6a2.392,2.392,0,0,1-3.443,3.141l-16.246-11.169a2.391,2.391,0,0,1,.632-4.25l-1.294-.825a.87.87,0,0,0-1.087.122l-54.654,53.71a.87.87,0,0,0,.022,1.245l19.85,19.339a.87.87,0,0,0,1.211-.017l57.666-58.346a.87.87,0,0,0-.147-1.349Z" data-name="Path 733" transform="translate(-656.147 -432.426)"/><path id="Path_734" fill="#55c2b4" d="M578.106,457.208l16.766,15.808,39.879-39.4-20.239-13.174Z" data-name="Path 734" transform="translate(-447.464 -298.351)"/><path id="Path_735" fill="#e6e6e6" d="M775.091,577.414a.581.581,0,0,1,0-.821l3.487-3.487a.594.594,0,0,1,.821,0,.581.581,0,0,1,0,.82l-3.487,3.487a.594.594,0,0,1-.821,0Z" data-name="Path 735" transform="translate(-589.354 -432.426)"/><path id="Path_736" fill="#e6e6e6" d="M780.966,582.468l3.487-3.487a.58.58,0,1,1,.821.821l-3.487,3.487a.58.58,0,1,1-.821-.821Z" data-name="Path 736" transform="translate(-601.104 -432.426)"/><circle id="Ellipse_117" cx="3.917" cy="3.917" r="3.917" fill="#55c2b4" data-name="Ellipse 117" transform="translate(127.112 168.509)"/><path id="Path_739" fill="#e6e6e6" d="M479.122,732.927l19.9,5.253h0A24.825,24.825,0,0,0,530.656,749.9l.435-.18a29.7,29.7,0,0,0,7.3-4.458c8.357-6.774,22.279-10.27,40.742-11.093a5.35,5.35,0,0,0,3.738-5.385h0a5.35,5.35,0,0,0-4.65-5.023L478.67,710.777Z" data-name="Path 739" transform="translate(-96.414 -432.426)"/><path id="Path_740" fill="#2f2e41" d="M577.908,750.556c52.051-8.347,99.47-21.859,139.228-43.91l123.406,30.287-.452-27.06-96.461-33.833a122.588,122.588,0,0,0-50.754-6.486L577.908,690.887Z" data-name="Path 740" transform="translate(-453.314 -432.426)"/><path id="Path_741" fill="#e6e6e6" d="M721.84,761.415h0a6.328,6.328,0,0,0-2.6-7.117l-46.668-24.536-11.3-29.383-19.438,12.205,5.425,21.7-1.283,8.979a19.856,19.856,0,0,0,19.656,22.663h50.148a6.329,6.329,0,0,0,6.062-4.51Z" data-name="Path 741" transform="translate(-398.804 -432.426)"/><path id="Path_742" fill="#2f2e41" d="M695.89,733.831c56.358,70.069,95.135-6.25,133.351-87.243l46.108,75.038,28.026-19.89-48.327-106.32a18.2,18.2,0,0,0-28.94-5.819l-67.385,75.071-12.657-.9Z" data-name="Path 742" transform="translate(-634.129 -432.426)"/><circle id="Ellipse_118" cx="33.451" cy="33.451" r="33.451" fill="#ffb9b9" data-name="Ellipse 118" transform="translate(25.146 34.25)"/><path id="Path_743" fill="#ffb9b9" d="M896.6,559.8l37.067,8.137a223.874,223.874,0,0,1,15.369-44.3l-34.355-12.657A237.75,237.75,0,0,1,896.6,559.8Z" data-name="Path 743" transform="translate(-880.49 -432.426)"/><path id="Path_744" fill="#55c2b4" d="M899.138,742.419l66-77.75L938.261,620c-2.829-20.095-13.207-35.889-29.178-48.5l-10.849-18.033-32.547-13.561h0a66.605,66.605,0,0,0-19.757,78.362Z" data-name="Path 744" transform="translate(-840.541 -432.426)"/><path id="Path_745" fill="#ffb9b9" d="M793.534,656.532l39.779-30.739,18.845-14.382a14.138,14.138,0,0,0-.568-22.889h0a14.138,14.138,0,0,0-20.388,4.82l-6.93,12.561L785.4,639.354Z" data-name="Path 745" transform="translate(-677.981 -432.426)"/><path id="Path_746" fill="#55c2b4" d="M941.462,633.93l10.849,22.6-55.149,27.122c-42.9-37.349-66.814-73.165-50.628-124.762l20.794,5.424L908.916,649.3Z" data-name="Path 746" transform="translate(-828.621 -432.426)"/><circle id="Ellipse_119" cx="13.318" cy="13.318" r="13.318" fill="#2f2e41" data-name="Ellipse 119" transform="translate(1.851 2.513)"/><path id="Path_747" fill="#2f2e41" d="M947.865,445a13.308,13.308,0,0,0-13.312-12.448c.275-.035.548-.077.828-.1a13.318,13.318,0,1,1,1.709,26.582c-.28.018-.556.011-.833.011A13.308,13.308,0,0,0,947.865,445Z" data-name="Path 747" transform="translate(-918.971 -432.426)"/><path id="Path_748" fill="#2f2e41" d="M888.486,450.684c11.878-9.853,45.947,2.67,48.145,9.294,16.062,2.189,28.223,11.56,28.223,28.223h0c-9.549,3.912-20.41,3.43-32.151,0-18.715,15.252-20,34.425-8.616,56.447l-14,.28-17.357-25.367-.83,25.731-32.1-.644V507.774a77.1,77.1,0,0,1,8.232-35.32C873.034,462.737,880.8,457.063,888.486,450.684Z" data-name="Path 748" transform="translate(-859.517 -432.426)"/><ellipse id="Ellipse_120" cx="6.369" cy="8.916" fill="#ffb8b8" data-name="Ellipse 120" rx="6.369" ry="8.916" transform="translate(52.489 65.574)"/></svg>